Coordinates
version=1
nRows=29
nColumns=24
inDegrees=yes

Units are S.I. units (second, meters, Newtons, ...)
Angles are in degrees.

endheader
time	pelvis_tilt	pelvis_list	pelvis_rotation	pelvis_tx	pelvis_ty	pelvis_tz	hip_flexion_r	hip_adduction_r	hip_rotation_r	knee_angle_r	ankle_angle_r	subtalar_angle_r	mtp_angle_r	hip_flexion_l	hip_adduction_l	hip_rotation_l	knee_angle_l	ankle_angle_l	subtalar_angle_l	mtp_angle_l	lumbar_extension	lumbar_bending	lumbar_rotation
      1.45900000	     -1.14283719	      4.97260954	     -2.69351334	      0.33549313	      1.02496745	      0.26242451	     17.22763867	     -7.52187279	     -6.27083264	    -71.37240763	     -4.11379493	     -2.78398789	      5.93008302	      9.75041816	     10.17953013	      1.63541413	    -11.11895886	      3.96269258	    -11.11616613	     -0.06071700	     -2.37023243	     -7.60458185	      4.01165832
      1.46316667	     -1.14143636	      4.86451905	     -2.66987739	      0.34034390	      1.02570293	      0.26226848	     17.92506334	     -7.43571445	     -6.26451127	    -71.34398030	     -3.77705932	     -2.97429677	      5.90245025	      9.27643166	     10.08729582	      1.71438299	    -10.80344995	      4.06157467	    -11.05725292	     -0.06392009	     -2.44760739	     -7.48293793	      3.96127433
      1.46733333	     -1.13373726	      4.75406225	     -2.63335186	      0.34517705	      1.02643386	      0.26210022	     18.59864278	     -7.34732453	     -6.27191508	    -71.25585393	     -3.44210983	     -3.13212477	      5.87562216	      8.79976275	      9.99558267	      1.82047193	    -10.49676977	      4.16294850	    -11.00889050	     -0.06820377	     -2.53936349	     -7.35583512	      3.87499530
      1.47150000	     -1.09252000	      4.62839470	     -2.55583867	      0.34997314	      1.02719011	      0.26183577	     19.21016030	     -7.26119172	     -6.32638548	    -71.10717661	     -3.11553798	     -3.21887124	      5.73163824	      8.28040620	      9.90394960	      2.04603427	    -10.17943829	      4.22718398	    -11.07872885	     -0.10470068	     -2.72600205	     -7.19425333	      3.52686221
      1.47566667	     -1.09609914	      4.50833577	     -2.49930004	      0.35476869	      1.02783595	      0.26162768	     19.86675302	     -7.15913702	     -6.34595302	    -70.91013653	     -2.80106035	     -3.36371247	      5.70690988	      7.82943117	      9.80169002	      2.15439612	     -9.89489765	      4.32389604	    -11.02689632	     -0.11096413	     -2.79826343	     -7.06206464	      3.47285310
      1.47983333	     -1.07278475	      4.37241291	     -2.39395037	      0.35950424	      1.02849709	      0.26131512	     20.46805179	     -7.06234575	     -6.42231411	    -70.65532337	     -2.47386940	     -3.44693242	      5.63639052	      7.35961086	      9.69678234	      2.36887524	     -9.63554249	      4.42317322	    -11.04394416	     -0.13382224	     -2.97117171	     -6.87187183	      3.27195842
      1.48400000	     -1.01410155	      4.24739818	     -2.30691309	      0.36426531	      1.02919037	      0.26104409	     21.01611344	     -6.96831864	     -6.47468504	    -70.33721945	     -2.18918770	     -3.51225037	      5.48201497	      6.82743273	      9.60155727	      2.60033432	     -9.31696231	      4.46642044	    -11.13194378	     -0.19234727	     -3.14879781	     -6.73446616	      2.95051411
      1.48816667	     -1.00853444	      4.11935009	     -2.21268744	      0.36901321	      1.02975688	      0.26076392	     21.60939387	     -6.86563605	     -6.52912475	    -69.97418842	     -1.87653623	     -3.60686595	      5.45259989	      6.38539724	      9.49298695	      2.74935177	     -9.06622067	      4.57681466	    -11.08784375	     -0.20366817	     -3.23209239	     -6.58360660	      2.88871211
      1.49233333	     -0.96942797	      3.99279086	     -2.08810439	      0.37370552	      1.03033640	      0.26042367	     22.14673592	     -6.77974810	     -6.61006775	    -69.55509179	     -1.58029339	     -3.61396053	      5.32363874	      5.89974229	      9.39691102	      3.02480516	     -8.79502914	      4.64696465	    -11.17479257	     -0.26242830	     -3.42457823	     -6.42155879	      2.54947991
      1.49650000	     -0.96836310	      3.85821526	     -1.97087468	      0.37842569	      1.03084280	      0.26010861	     22.70590341	     -6.67317280	     -6.68380210	    -69.07603178	     -1.26783730	     -3.68953974	      5.29531808	      5.47563172	      9.27949647	      3.19279620	     -8.56553989	      4.75571134	    -11.13525013	     -0.27567981	     -3.50530543	     -6.25511823	      2.47975727
      1.50066667	     -0.89853868	      3.72959664	     -1.83644370	      0.38309106	      1.03141143	      0.25975372	     23.17168684	     -6.58533106	     -6.76953624	    -68.54027188	     -0.98534584	     -3.67882659	      5.18702443	      4.96551398	      9.17776779	      3.47311928	     -8.30544124	      4.83160822	    -11.21422574	     -0.33143332	     -3.74119797	     -6.09067973	      2.14612390
      1.50483333	     -0.90102820	      3.60092837	     -1.69415282	      0.38774197	      1.03181953	      0.25941065	     23.70250112	     -6.48791280	     -6.85379385	    -67.95820647	     -0.66769743	     -3.71463303	      5.14115622	      4.56524700	      9.06576369	      3.68332222	     -8.10753146	      4.93891513	    -11.20810931	     -0.35578070	     -3.85815496	     -5.93078396	      2.02619336
      1.50900000	     -0.86452398	      3.46784140	     -1.54828219	      0.39242575	      1.03228072	      0.25905304	     24.16078056	     -6.39168398	     -6.94779462	    -67.30575721	     -0.36637611	     -3.73700127	      5.09447059	      4.11043573	      8.94790802	      3.90688817	     -7.88447138	      5.04668383	    -11.21155434	     -0.38115502	     -4.00284288	     -5.75704999	      1.84139820
      1.51316667	     -0.81134459	      3.37387134	     -1.41372038	      0.39707831	      1.03269266	      0.25871096	     24.59984371	     -6.33275544	     -7.01203159	    -66.62086362	     -0.09437136	     -3.72148737	      5.00156492	      3.62777600	      8.87311885	      4.17279781	     -7.62919594	      5.11472949	    -11.29273505	     -0.43438833	     -4.19666435	     -5.63404013	      1.51114002
      1.51733333	     -0.77995874	      3.25375896	     -1.26509978	      0.40174287	      1.03306837	      0.25837278	     25.02840655	     -6.24180741	     -7.09330036	    -65.85864917	      0.18419710	     -3.75479659	      4.90515906	      3.18230250	      8.76412516	      4.41940680	     -7.40628763	      5.19673770	    -11.34387715	     -0.48985773	     -4.34374276	     -5.48846421	      1.29088752
      1.52150000	     -0.75547495	      3.16088541	     -1.11624960	      0.40639488	      1.03336499	      0.25804438	     25.45381891	     -6.17787081	     -7.16358395	    -65.05966247	      0.48208700	     -3.78998498	      4.79018791	      2.75263383	      8.68102332	      4.64778041	     -7.19373805	      5.26695146	    -11.39698496	     -0.55733847	     -4.48495962	     -5.37773963	      1.06198610
      1.52566667	     -0.71480918	      3.05610242	     -0.97210532	      0.41106079	      1.03367937	      0.25772278	     25.83402329	     -6.09615313	     -7.22844812	    -64.18826162	      0.72332366	     -3.82261017	      4.70884388	      2.30249792	      8.58110429	      4.87285420	     -6.97805288	      5.38099204	    -11.39858319	     -0.60268371	     -4.64435056	     -5.23650814	      0.89167805
      1.52983333	     -0.70556435	      2.97221862	     -0.82660849	      0.41572785	      1.03387837	      0.25741824	     26.23473995	     -6.03284116	     -7.28399332	    -63.27493660	      0.97093164	     -3.87278757	      4.63540764	      1.89282069	      8.50040884	      5.09116679	     -6.77333615	      5.48653445	    -11.41487276	     -0.64337352	     -4.76027254	     -5.12611687	      0.70224114
      1.53400000	     -0.69093765	      2.87250720	     -0.67070370	      0.42040719	      1.03408127	      0.25711165	     26.59517618	     -5.95069295	     -7.35088980	    -62.28825654	      1.22031737	     -3.95394871	      4.58987240	      1.48708222	      8.39857701	      5.28826588	     -6.59149304	      5.59615298	    -11.40550067	     -0.66707582	     -4.88127062	     -4.99969737	      0.56794689
      1.53816667	     -0.62709241	      2.80455233	     -0.54157919	      0.42510625	      1.03429759	      0.25685985	     26.89018713	     -5.88969347	     -7.38207562	    -61.25477499	      1.40734127	     -4.06373044	      4.50331004	      1.00062728	      8.32827927	      5.51085103	     -6.34830941	      5.67537168	    -11.44832595	     -0.71343697	     -5.06286244	     -4.91384010	      0.31262706
      1.54233333	     -0.61312531	      2.73714974	     -0.39930758	      0.42981410	      1.03441035	      0.25659307	     27.21363655	     -5.83027430	     -7.42063731	    -60.16403135	      1.59788757	     -4.18231902	      4.42648341	      0.58269480	      8.25641544	      5.72066960	     -6.13786993	      5.77588124	    -11.47364399	     -0.75358209	     -5.17207709	     -4.82562691	      0.13760350
      1.54650000	     -0.63422305	      2.67696204	     -0.25508301	      0.43452760	      1.03442207	      0.25635605	     27.55363048	     -5.76963460	     -7.44848769	    -59.02296924	      1.80849849	     -4.32077981	      4.37994449	      0.21677609	      8.18743713	      5.90182071	     -5.95853638	      5.88458145	    -11.46493190	     -0.77601664	     -5.24358050	     -4.74429659	      0.02162083
      1.55066667	     -0.60103411	      2.60932603	     -0.12087034	      0.43926810	      1.03450092	      0.25614565	     27.80191775	     -5.69420826	     -7.47243943	    -57.80543671	      1.96031095	     -4.50486208	      4.32555293	     -0.22423696	      8.10682469	      6.08815228	     -5.74675539	      5.99252701	    -11.45991063	     -0.80074260	     -5.37456864	     -4.65681672	     -0.13600133
      1.55483333	     -0.58371792	      2.57472267	     -0.00223191	      0.44403009	      1.03449557	      0.25597257	     28.05518708	     -5.64405303	     -7.46981440	    -56.54680435	      2.05016005	     -4.72909549	      4.24123815	     -0.65954408	      8.06025567	      6.27634554	     -5.50982229	      6.08110538	    -11.49564687	     -0.84096325	     -5.47856159	     -4.61934162	     -0.34799889
      1.55900000	     -0.59859364	      2.52858925	      0.13122096	      0.44878694	      1.03441277	      0.25580416	     28.31127039	     -5.57849952	     -7.47369708	    -55.22578175	      2.19926520	     -4.95091312	      4.17704834	     -1.03841573	      7.99801295	      6.45021681	     -5.32089896	      6.18648835	    -11.49530772	     -0.86971111	     -5.55364951	     -4.55233431	     -0.47481825
      1.56316667	     -0.58454013	      2.48911328	      0.24397137	      0.45358912	      1.03434320	      0.25567449	     28.51001129	     -5.50877293	     -7.45994347	    -53.83987258	      2.25554293	     -5.23739765	      4.08350207	     -1.47068469	      7.94032766	      6.61105989	     -5.08718317	      6.28605387	    -11.50786879	     -0.91144733	     -5.65150079	     -4.51474041	     -0.64801404
      1.56733333	     -0.61431920	      2.45526071	      0.37017830	      0.45838694	      1.03416879	      0.25555255	     28.72988533	     -5.44293671	     -7.44369059	    -52.40607459	      2.38743930	     -5.49692269	      4.02066150	     -1.83331628	      7.88638546	      6.76719310	     -4.90374905	      6.39785440	    -11.48819423	     -0.93727104	     -5.70750632	     -4.46263390	     -0.75247007
      1.57150000	     -0.63804101	      2.42975460	      0.47868373	      0.46322708	      1.03396223	      0.25547125	     28.91899822	     -5.37776191	     -7.42178144	    -50.90889195	      2.40581200	     -5.83743389	      3.92910180	     -2.22067670	      7.83901787	      6.90352322	     -4.68152947	      6.50967008	    -11.49001823	     -0.97452263	     -5.75629733	     -4.44610630	     -0.90290186
      1.57566667	     -0.66219387	      2.40875509	      0.58703068	      0.46806740	      1.03372299	      0.25540580	     29.08065662	     -5.30849304	     -7.38204825	    -49.35563803	      2.44925725	     -6.17447907	      3.83668446	     -2.59761214	      7.79539752	      7.03464458	     -4.48308509	      6.62339567	    -11.47578109	     -1.01138519	     -5.80690636	     -4.41435888	     -1.03118681
